<mxfile host="app.diagrams.net" modified="2023-12-16T07:18:05.548Z" agent="Mozilla/5.0 (Windows NT 10.0; Win64; x64) AppleWebKit/537.36 (KHTML, like Gecko) Chrome/119.0.0.0 Safari/537.36" version="22.1.8" etag="WgN_ay73hYloiTxnE0bU" type="github">
  <diagram name="PaginÄƒ-1" id="aUp7HQQueHK-eKld9qXw">
    <mxGraphModel>
      <root>
        <mxCell id="0" />
        <mxCell id="1" parent="0" />
      </root>
    </mxGraphModel>
  </diagram>
</mxfile>
